<?xml version="1.0" encoding="UTF-8" standalone="no"?><svg xmlns="http://www.w3.org/2000/svg" xmlns:xlink="http://www.w3.org/1999/xlink" contentScriptType="application/ecmascript" contentStyleType="text/css" height="641px" preserveAspectRatio="none" style="width:648px;height:641px;" version="1.1" viewBox="0 0 648 641" width="648px" zoomAndPan="magnify"><defs><filter height="300%" id="f15q8ya7ev0h2p" width="300%" x="-1" y="-1"><feGaussianBlur result="blurOut" stdDeviation="2.0"/><feColorMatrix in="blurOut" result="blurOut2" type="matrix" values="0 0 0 0 0 0 0 0 0 0 0 0 0 0 0 0 0 0 .4 0"/><feOffset dx="4.0" dy="4.0" in="blurOut2" result="blurOut3"/><feBlend in="SourceGraphic" in2="blurOut3" mode="normal"/></filter></defs><g><text fill="#888888" font-family="sans-serif" font-size="10" lengthAdjust="spacing" textLength="48" x="587" y="9.2822">Last Mod:</text><text fill="#888888" font-family="sans-serif" font-size="10" lengthAdjust="spacing" textLength="56" x="579" y="20.9229">2021-02-20</text><text fill="#000000" font-family="sans-serif" font-size="18" font-weight="bold" lengthAdjust="spacing" textLength="46" x="294.5" y="39.9893">Core</text><!--MD5=[e3d83ec5fd90ea9f3f2bfe265cb53458]
class Status--><rect codeLine="12" fill="#FEFECE" filter="url(#f15q8ya7ev0h2p)" height="124.8281" id="Status" style="stroke:#A80036;stroke-width:1.5;" width="78" x="415" y="70.2344"/><ellipse cx="432.25" cy="86.2344" fill="#ADD1B2" rx="11" ry="11" style="stroke:#A80036;stroke-width:1.0;"/><path d="M436.3594,92.2344 L428.6406,92.2344 L428.6406,79.8438 L436.3594,79.8438 L436.3594,82 L431.0938,82 L431.0938,84.6719 L435.8594,84.6719 L435.8594,86.8281 L431.0938,86.8281 L431.0938,90.0781 L436.3594,90.0781 L436.3594,92.2344 Z " fill="#000000"/><text fill="#000000" font-family="sans-serif" font-size="12" lengthAdjust="spacing" textLength="41" x="446.75" y="90.3887">Status</text><line style="stroke:#A80036;stroke-width:1.5;" x1="416" x2="492" y1="102.2344" y2="102.2344"/><rect fill="none" height="6" style="stroke:#C82930;stroke-width:1.0;" width="6" x="423" y="110.2344"/><text fill="#000000" font-family="sans-serif" font-size="11" lengthAdjust="spacing" textLength="27" x="435" y="116.4448">code</text><rect fill="none" height="6" style="stroke:#C82930;stroke-width:1.0;" width="6" x="423" y="123.0391"/><text fill="#000000" font-family="sans-serif" font-size="11" lengthAdjust="spacing" textLength="24" x="435" y="129.2495">slug</text><ellipse cx="426" cy="138.8438" fill="none" rx="3" ry="3" style="stroke:#038048;stroke-width:1.0;"/><text fill="#000000" font-family="sans-serif" font-size="11" lengthAdjust="spacing" textLength="27" x="435" y="142.0542">label</text><text fill="#000000" font-family="sans-serif" font-size="11" lengthAdjust="spacing" textLength="52" x="435" y="154.8589">definition</text><ellipse cx="426" cy="164.4531" fill="none" rx="3" ry="3" style="stroke:#038048;stroke-width:1.0;"/><text fill="#000000" font-family="sans-serif" font-size="11" lengthAdjust="spacing" textLength="19" x="435" y="167.6636">link</text><text fill="#000000" font-family="sans-serif" font-size="11" lengthAdjust="spacing" textLength="42" x="435" y="180.4683">is_valid</text><line style="stroke:#A80036;stroke-width:1.5;" x1="416" x2="492" y1="187.0625" y2="187.0625"/><!--MD5=[7870f61a2b09887c08d38df1315a7195]
class Namespace--><rect codeLine="21" fill="#FEFECE" filter="url(#f15q8ya7ev0h2p)" height="73.6094" id="Namespace" style="stroke:#A80036;stroke-width:1.5;" width="106" x="528" y="95.7344"/><ellipse cx="543" cy="111.7344" fill="#ADD1B2" rx="11" ry="11" style="stroke:#A80036;stroke-width:1.0;"/><path d="M547.1094,117.7344 L539.3906,117.7344 L539.3906,105.3438 L547.1094,105.3438 L547.1094,107.5 L541.8438,107.5 L541.8438,110.1719 L546.6094,110.1719 L546.6094,112.3281 L541.8438,112.3281 L541.8438,115.5781 L547.1094,115.5781 L547.1094,117.7344 Z " fill="#000000"/><text fill="#000000" font-family="sans-serif" font-size="12" lengthAdjust="spacing" textLength="74" x="557" y="115.8887">Namespace</text><line style="stroke:#A80036;stroke-width:1.5;" x1="529" x2="633" y1="127.7344" y2="127.7344"/><rect fill="none" height="6" style="stroke:#C82930;stroke-width:1.0;" width="6" x="536" y="135.7344"/><text fill="#000000" font-family="sans-serif" font-size="11" lengthAdjust="spacing" textLength="27" x="548" y="141.9448">code</text><text fill="#000000" font-family="sans-serif" font-size="11" lengthAdjust="spacing" textLength="32" x="548" y="154.7495">name</text><line style="stroke:#A80036;stroke-width:1.5;" x1="529" x2="633" y1="161.3438" y2="161.3438"/><!--MD5=[bbad56bc7779fe6d833d77eae0c25c05]
class Theme--><rect codeLine="26" fill="#FEFECE" filter="url(#f15q8ya7ev0h2p)" height="137.6328" id="Theme" style="stroke:#A80036;stroke-width:1.5;" width="89" x="259.5" y="291.2344"/><ellipse cx="281.25" cy="307.2344" fill="#ADD1B2" rx="11" ry="11" style="stroke:#A80036;stroke-width:1.0;"/><path d="M285.3594,313.2344 L277.6406,313.2344 L277.6406,300.8438 L285.3594,300.8438 L285.3594,303 L280.0938,303 L280.0938,305.6719 L284.8594,305.6719 L284.8594,307.8281 L280.0938,307.8281 L280.0938,311.0781 L285.3594,311.0781 L285.3594,313.2344 Z " fill="#000000"/><text fill="#000000" font-family="sans-serif" font-size="12" lengthAdjust="spacing" textLength="42" x="296.75" y="311.3887">Theme</text><line style="stroke:#A80036;stroke-width:1.5;" x1="260.5" x2="347.5" y1="323.2344" y2="323.2344"/><rect fill="none" height="6" style="stroke:#C82930;stroke-width:1.0;" width="6" x="267.5" y="331.2344"/><text fill="#000000" font-family="sans-serif" font-size="11" lengthAdjust="spacing" textLength="27" x="279.5" y="337.4448">code</text><rect fill="none" height="6" style="stroke:#C82930;stroke-width:1.0;" width="6" x="267.5" y="344.0391"/><text fill="#000000" font-family="sans-serif" font-size="11" lengthAdjust="spacing" textLength="24" x="279.5" y="350.2495">slug</text><ellipse cx="270.5" cy="359.8438" fill="none" rx="3" ry="3" style="stroke:#038048;stroke-width:1.0;"/><text fill="#000000" font-family="sans-serif" font-size="11" lengthAdjust="spacing" textLength="19" x="279.5" y="363.0542">link</text><text fill="#000000" font-family="sans-serif" font-size="11" lengthAdjust="spacing" textLength="42" x="279.5" y="375.8589">version</text><text fill="#000000" font-family="sans-serif" font-size="11" lengthAdjust="spacing" textLength="27" x="279.5" y="388.6636">label</text><text fill="#000000" font-family="sans-serif" font-size="11" lengthAdjust="spacing" textLength="52" x="279.5" y="401.4683">definition</text><text fill="#000000" font-family="sans-serif" font-size="11" lengthAdjust="spacing" textLength="63" x="279.5" y="414.2729">description</text><line style="stroke:#A80036;stroke-width:1.5;" x1="260.5" x2="347.5" y1="420.8672" y2="420.8672"/><!--MD5=[30911c842d7aab8ef88c02f8dbac4e0b]
class ApplicationSchema--><rect codeLine="38" fill="#FEFECE" filter="url(#f15q8ya7ev0h2p)" height="137.6328" id="ApplicationSchema" style="stroke:#A80036;stroke-width:1.5;" width="151" x="228.5" y="63.7344"/><ellipse cx="243.5" cy="79.7344" fill="#ADD1B2" rx="11" ry="11" style="stroke:#A80036;stroke-width:1.0;"/><path d="M247.6094,85.7344 L239.8906,85.7344 L239.8906,73.3438 L247.6094,73.3438 L247.6094,75.5 L242.3438,75.5 L242.3438,78.1719 L247.1094,78.1719 L247.1094,80.3281 L242.3438,80.3281 L242.3438,83.5781 L247.6094,83.5781 L247.6094,85.7344 Z " fill="#000000"/><text fill="#000000" font-family="sans-serif" font-size="12" lengthAdjust="spacing" textLength="119" x="257.5" y="83.8887">ApplicationSchema</text><line style="stroke:#A80036;stroke-width:1.5;" x1="229.5" x2="378.5" y1="95.7344" y2="95.7344"/><rect fill="none" height="6" style="stroke:#C82930;stroke-width:1.0;" width="6" x="236.5" y="103.7344"/><text fill="#000000" font-family="sans-serif" font-size="11" lengthAdjust="spacing" textLength="27" x="248.5" y="109.9448">code</text><rect fill="none" height="6" style="stroke:#C82930;stroke-width:1.0;" width="6" x="236.5" y="116.5391"/><text fill="#000000" font-family="sans-serif" font-size="11" lengthAdjust="spacing" textLength="24" x="248.5" y="122.7495">slug</text><ellipse cx="239.5" cy="132.3438" fill="none" rx="3" ry="3" style="stroke:#038048;stroke-width:1.0;"/><text fill="#000000" font-family="sans-serif" font-size="11" lengthAdjust="spacing" textLength="19" x="248.5" y="135.5542">link</text><text fill="#000000" font-family="sans-serif" font-size="11" lengthAdjust="spacing" textLength="42" x="248.5" y="148.3589">version</text><ellipse cx="239.5" cy="157.9531" fill="none" rx="3" ry="3" style="stroke:#038048;stroke-width:1.0;"/><text fill="#000000" font-family="sans-serif" font-size="11" lengthAdjust="spacing" textLength="27" x="248.5" y="161.1636">label</text><text fill="#000000" font-family="sans-serif" font-size="11" lengthAdjust="spacing" textLength="52" x="248.5" y="173.9683">definition</text><text fill="#000000" font-family="sans-serif" font-size="11" lengthAdjust="spacing" textLength="63" x="248.5" y="186.7729">description</text><line style="stroke:#A80036;stroke-width:1.5;" x1="229.5" x2="378.5" y1="193.3672" y2="193.3672"/><!--MD5=[1316f8f1fa7a22bd485ca39f6e7ea5db]
class CodeList--><rect codeLine="50" fill="#FEFECE" filter="url(#f15q8ya7ev0h2p)" height="124.8281" id="CodeList" style="stroke:#A80036;stroke-width:1.5;" width="89" x="383.5" y="297.7344"/><ellipse cx="400.3" cy="313.7344" fill="#ADD1B2" rx="11" ry="11" style="stroke:#A80036;stroke-width:1.0;"/><path d="M404.4094,319.7344 L396.6906,319.7344 L396.6906,307.3438 L404.4094,307.3438 L404.4094,309.5 L399.1438,309.5 L399.1438,312.1719 L403.9094,312.1719 L403.9094,314.3281 L399.1438,314.3281 L399.1438,317.5781 L404.4094,317.5781 L404.4094,319.7344 Z " fill="#000000"/><text fill="#000000" font-family="sans-serif" font-size="12" lengthAdjust="spacing" textLength="53" x="414.7" y="317.8887">CodeList</text><line style="stroke:#A80036;stroke-width:1.5;" x1="384.5" x2="471.5" y1="329.7344" y2="329.7344"/><rect fill="none" height="6" style="stroke:#C82930;stroke-width:1.0;" width="6" x="391.5" y="337.7344"/><text fill="#000000" font-family="sans-serif" font-size="11" lengthAdjust="spacing" textLength="27" x="403.5" y="343.9448">code</text><rect fill="none" height="6" style="stroke:#C82930;stroke-width:1.0;" width="6" x="391.5" y="350.5391"/><text fill="#000000" font-family="sans-serif" font-size="11" lengthAdjust="spacing" textLength="24" x="403.5" y="356.7495">slug</text><ellipse cx="394.5" cy="366.3438" fill="none" rx="3" ry="3" style="stroke:#038048;stroke-width:1.0;"/><text fill="#000000" font-family="sans-serif" font-size="11" lengthAdjust="spacing" textLength="19" x="403.5" y="369.5542">link</text><text fill="#000000" font-family="sans-serif" font-size="11" lengthAdjust="spacing" textLength="27" x="403.5" y="382.3589">label</text><text fill="#000000" font-family="sans-serif" font-size="11" lengthAdjust="spacing" textLength="52" x="403.5" y="395.1636">definition</text><text fill="#000000" font-family="sans-serif" font-size="11" lengthAdjust="spacing" textLength="63" x="403.5" y="407.9683">description</text><line style="stroke:#A80036;stroke-width:1.5;" x1="384.5" x2="471.5" y1="414.5625" y2="414.5625"/><!--MD5=[96abad382afb0e4e08b50713d5c4cea5]
class CodeListValue--><rect codeLine="64" fill="#FEFECE" filter="url(#f15q8ya7ev0h2p)" height="137.6328" id="CodeListValue" style="stroke:#A80036;stroke-width:1.5;" width="171" x="427.5" y="490.2344"/><ellipse cx="465.45" cy="506.2344" fill="#ADD1B2" rx="11" ry="11" style="stroke:#A80036;stroke-width:1.0;"/><path d="M469.5594,512.2344 L461.8406,512.2344 L461.8406,499.8438 L469.5594,499.8438 L469.5594,502 L464.2938,502 L464.2938,504.6719 L469.0594,504.6719 L469.0594,506.8281 L464.2938,506.8281 L464.2938,510.0781 L469.5594,510.0781 L469.5594,512.2344 Z " fill="#000000"/><text fill="#000000" font-family="sans-serif" font-size="12" lengthAdjust="spacing" textLength="88" x="484.55" y="510.3887">CodeListValue</text><line style="stroke:#A80036;stroke-width:1.5;" x1="428.5" x2="597.5" y1="522.2344" y2="522.2344"/><rect fill="none" height="6" style="stroke:#C82930;stroke-width:1.0;" width="6" x="435.5" y="530.2344"/><text fill="#000000" font-family="sans-serif" font-size="11" lengthAdjust="spacing" textLength="27" x="447.5" y="536.4448">code</text><rect fill="none" height="6" style="stroke:#C82930;stroke-width:1.0;" width="6" x="435.5" y="543.0391"/><text fill="#000000" font-family="sans-serif" font-size="11" lengthAdjust="spacing" textLength="24" x="447.5" y="549.2495">slug</text><ellipse cx="438.5" cy="558.8438" fill="none" rx="3" ry="3" style="stroke:#038048;stroke-width:1.0;"/><text fill="#000000" font-family="sans-serif" font-size="11" lengthAdjust="spacing" textLength="19" x="447.5" y="562.0542">link</text><ellipse cx="438.5" cy="571.6484" fill="none" rx="3" ry="3" style="stroke:#038048;stroke-width:1.0;"/><text fill="#000000" font-family="sans-serif" font-size="11" lengthAdjust="spacing" textLength="27" x="447.5" y="574.8589">label</text><text fill="#000000" font-family="sans-serif" font-size="11" lengthAdjust="spacing" textLength="52" x="447.5" y="587.6636">definition</text><text fill="#000000" font-family="sans-serif" font-size="11" lengthAdjust="spacing" textLength="63" x="447.5" y="600.4683">description</text><line style="stroke:#A80036;stroke-width:1.0;" x1="428.5" x2="597.5" y1="607.0625" y2="607.0625"/><text fill="#000000" font-family="sans-serif" font-size="11" lengthAdjust="spacing" textLength="159" x="433.5" y="621.2729">search(slug, code_list_slug)</text><!--MD5=[e725e2ecb2f5170ea8643eb9e1dbfe4f]
class MEASURE_TYPE_CHOICES--><rect codeLine="77" fill="#FEFECE" filter="url(#f15q8ya7ev0h2p)" height="163.2422" id="MEASURE_TYPE_CHOICES" style="stroke:#A80036;stroke-width:1.5;" width="186" x="7" y="51.2344"/><ellipse cx="22" cy="67.2344" fill="#EB937F" rx="11" ry="11" style="stroke:#A80036;stroke-width:1.0;"/><path d="M26.1094,73.2344 L18.3906,73.2344 L18.3906,60.8438 L26.1094,60.8438 L26.1094,63 L20.8438,63 L20.8438,65.6719 L25.6094,65.6719 L25.6094,67.8281 L20.8438,67.8281 L20.8438,71.0781 L26.1094,71.0781 L26.1094,73.2344 Z " fill="#000000"/><text fill="#000000" font-family="sans-serif" font-size="12" lengthAdjust="spacing" textLength="154" x="36" y="71.3887">MEASURE_TYPE_CHOICES</text><line style="stroke:#A80036;stroke-width:1.5;" x1="8" x2="192" y1="83.2344" y2="83.2344"/><text fill="#000000" font-family="sans-serif" font-size="11" lengthAdjust="spacing" textLength="150" x="13" y="97.4448">MEASURE_TYPE_UNKNOWN</text><text fill="#000000" font-family="sans-serif" font-size="11" lengthAdjust="spacing" textLength="121" x="13" y="110.2495">MEASURE_TYPE_AREA</text><text fill="#000000" font-family="sans-serif" font-size="11" lengthAdjust="spacing" textLength="138" x="13" y="123.0542">MEASURE_TYPE_LENGTH</text><text fill="#000000" font-family="sans-serif" font-size="11" lengthAdjust="spacing" textLength="130" x="13" y="135.8589">MEASURE_TYPE_ANGLE</text><text fill="#000000" font-family="sans-serif" font-size="11" lengthAdjust="spacing" textLength="119" x="13" y="148.6636">MEASURE_TYPE_TIME</text><text fill="#000000" font-family="sans-serif" font-size="11" lengthAdjust="spacing" textLength="147" x="13" y="161.4683">MEASURE_TYPE_VELOCITY</text><text fill="#000000" font-family="sans-serif" font-size="11" lengthAdjust="spacing" textLength="139" x="13" y="174.2729">MEASURE_TYPE_VOLUME</text><text fill="#000000" font-family="sans-serif" font-size="11" lengthAdjust="spacing" textLength="129" x="13" y="187.0776">MEASURE_TYPE_SCALE</text><text fill="#000000" font-family="sans-serif" font-size="11" lengthAdjust="spacing" textLength="136" x="13" y="199.8823">MEASURE_TYPE_WEIGHT</text><line style="stroke:#A80036;stroke-width:1.5;" x1="8" x2="192" y1="206.4766" y2="206.4766"/><!--MD5=[728e6eae1f75e58c405ce3dc82dc21dd]
class UnitOfMeasure--><rect codeLine="89" fill="#FEFECE" filter="url(#f15q8ya7ev0h2p)" height="137.6328" id="UnitOfMeasure" style="stroke:#A80036;stroke-width:1.5;" width="160" x="20" y="291.2344"/><ellipse cx="51.2" cy="307.2344" fill="#ADD1B2" rx="11" ry="11" style="stroke:#A80036;stroke-width:1.0;"/><path d="M55.3094,313.2344 L47.5906,313.2344 L47.5906,300.8438 L55.3094,300.8438 L55.3094,303 L50.0438,303 L50.0438,305.6719 L54.8094,305.6719 L54.8094,307.8281 L50.0438,307.8281 L50.0438,311.0781 L55.3094,311.0781 L55.3094,313.2344 Z " fill="#000000"/><text fill="#000000" font-family="sans-serif" font-size="12" lengthAdjust="spacing" textLength="92" x="68.8" y="311.3887">UnitOfMeasure</text><line style="stroke:#A80036;stroke-width:1.5;" x1="21" x2="179" y1="323.2344" y2="323.2344"/><text fill="#000000" font-family="sans-serif" font-size="11" lengthAdjust="spacing" textLength="32" x="40" y="337.4448">name</text><rect fill="none" height="6" style="stroke:#C82930;stroke-width:1.0;" width="6" x="28" y="344.0391"/><text fill="#000000" font-family="sans-serif" font-size="11" lengthAdjust="spacing" textLength="24" x="40" y="350.2495">slug</text><rect fill="none" height="6" style="stroke:#C82930;stroke-width:1.0;" width="6" x="28" y="356.8438"/><text fill="#000000" font-family="sans-serif" font-size="11" lengthAdjust="spacing" textLength="41" x="40" y="363.0542">symbol</text><text fill="#000000" font-family="sans-serif" font-size="11" lengthAdjust="spacing" textLength="116" x="40" y="375.8589">name_standard_unit</text><text fill="#000000" font-family="sans-serif" font-size="11" lengthAdjust="spacing" textLength="131" x="40" y="388.6636">scale_to_standard_unit</text><text fill="#000000" font-family="sans-serif" font-size="11" lengthAdjust="spacing" textLength="134" x="40" y="401.4683">offset_to_standard_unit</text><text fill="#000000" font-family="sans-serif" font-size="11" lengthAdjust="spacing" textLength="44" x="40" y="414.2729">formula</text><line style="stroke:#A80036;stroke-width:1.5;" x1="21" x2="179" y1="420.8672" y2="420.8672"/><!--MD5=[7ed5242d9f3c32c46477c9b94d9609a8]
link Status to Theme--><path codeLine="36" d="M414.9808,191.9135 C396.0966,220.5545 373.2239,255.2448 353.1615,285.6729 " fill="none" id="Status-to-Theme" style="stroke:#A80036;stroke-width:1.0;"/><line style="stroke:#A80036;stroke-width:1.0;" x1="353.0643" x2="348.6606" y1="285.8202" y2="296.9027"/><line style="stroke:#A80036;stroke-width:1.0;" x1="353.0643" x2="348.6606" y1="285.8202" y2="288.0954"/><line style="stroke:#A80036;stroke-width:1.0;" x1="353.0643" x2="348.6606" y1="285.8202" y2="292.4991"/><!--MD5=[f85a7926ff0048910ffabad581deed1a]
link ApplicationSchema to Theme--><path codeLine="47" d="M304,209.9677 C304,233.4579 304,259.2724 304,282.7774 " fill="none" id="ApplicationSchema-Theme" style="stroke:#A80036;stroke-width:1.0;"/><line style="stroke:#A80036;stroke-width:1.0;" x1="304" x2="312" y1="282.9874" y2="290.9874"/><line style="stroke:#A80036;stroke-width:1.0;" x1="304" x2="296" y1="282.9874" y2="290.9874"/><line style="stroke:#A80036;stroke-width:1.0;" x1="304" x2="304" y1="282.9874" y2="290.9874"/><line style="stroke:#A80036;stroke-width:1.0;" x1="304" x2="296" y1="209.9185" y2="201.9185"/><line style="stroke:#A80036;stroke-width:1.0;" x1="304" x2="312" y1="209.9185" y2="201.9185"/><line style="stroke:#A80036;stroke-width:1.0;" x1="304" x2="304" y1="209.9185" y2="201.9185"/><!--MD5=[f3b85bae2b618173e6cff5f692add8fb]
reverse link ApplicationSchema to Status--><path codeLine="48" d="M387.8294,132.7344 C396.8057,132.7344 405.782,132.7344 414.7582,132.7344 " fill="none" id="ApplicationSchema-backto-Status" style="stroke:#A80036;stroke-width:1.0;"/><line style="stroke:#A80036;stroke-width:1.0;" x1="387.5859" x2="379.5859" y1="132.7344" y2="140.7344"/><line style="stroke:#A80036;stroke-width:1.0;" x1="387.5859" x2="379.5859" y1="132.7344" y2="124.7344"/><line style="stroke:#A80036;stroke-width:1.0;" x1="387.5859" x2="379.5859" y1="132.7344" y2="132.7344"/><!--MD5=[c1b85c2bcc52a033eb34646c64e7d59b]
link Theme to CodeList--><path codeLine="59" d="M356.7079,360.2344 C362.8057,360.2344 368.9035,360.2344 375.0013,360.2344 " fill="none" id="Theme-CodeList" style="stroke:#A80036;stroke-width:1.0;"/><line style="stroke:#A80036;stroke-width:1.0;" x1="375.3164" x2="383.3164" y1="360.2344" y2="352.2344"/><line style="stroke:#A80036;stroke-width:1.0;" x1="375.3164" x2="383.3164" y1="360.2344" y2="368.2344"/><line style="stroke:#A80036;stroke-width:1.0;" x1="375.3164" x2="383.3164" y1="360.2344" y2="360.2344"/><line style="stroke:#A80036;stroke-width:1.0;" x1="356.5625" x2="348.5625" y1="360.2344" y2="368.2344"/><line style="stroke:#A80036;stroke-width:1.0;" x1="356.5625" x2="348.5625" y1="360.2344" y2="352.2344"/><line style="stroke:#A80036;stroke-width:1.0;" x1="356.5625" x2="348.5625" y1="360.2344" y2="360.2344"/><!--MD5=[fdf20c06cbc58b0d1725e447067166ac]
link ApplicationSchema to CodeList--><path codeLine="60" d="M341.7091,201.9185 C357.014,229.9981 374.6647,262.3813 389.9992,290.5151 " fill="none" id="ApplicationSchema-to-CodeList" style="stroke:#A80036;stroke-width:1.0;"/><line style="stroke:#A80036;stroke-width:1.0;" x1="390.0163" x2="400.8693" y1="290.5467" y2="297.571"/><line style="stroke:#A80036;stroke-width:1.0;" x1="390.0163" x2="386.8207" y1="290.5467" y2="297.571"/><line style="stroke:#A80036;stroke-width:1.0;" x1="390.0163" x2="393.845" y1="290.5467" y2="297.571"/><!--MD5=[07b929ec5d80eddfc941dfbf88018da2]
link Status to CodeList--><path codeLine="61" d="M446.8266,195.502 C443.4875,224.7191 439.5017,259.5943 436.0591,289.7174 " fill="none" id="Status-to-CodeList" style="stroke:#A80036;stroke-width:1.0;"/><line style="stroke:#A80036;stroke-width:1.0;" x1="436.0584" x2="443.0983" y1="289.7233" y2="297.6716"/><line style="stroke:#A80036;stroke-width:1.0;" x1="436.0584" x2="427.2017" y1="289.7233" y2="297.6716"/><line style="stroke:#A80036;stroke-width:1.0;" x1="436.0584" x2="435.15" y1="289.7233" y2="297.6716"/><!--MD5=[bb3a8ad86192cac26a9a6d0444dfbb2c]
link CodeList to CodeList--><path codeLine="62" d="M472.549,342.0489 C491.4219,340.6784 507.5,346.7403 507.5,360.2344 C507.5,371.7255 495.8408,377.827 480.7252,378.5389 " fill="none" id="CodeList-to-CodeList" style="stroke:#A80036;stroke-width:1.0;stroke-dasharray:7.0,7.0;"/><line style="stroke:#A80036;stroke-width:1.0;" x1="480.5482" x2="472.549" y1="378.5364" y2="386.419"/><line style="stroke:#A80036;stroke-width:1.0;" x1="480.5482" x2="472.549" y1="378.5364" y2="370.4207"/><line style="stroke:#A80036;stroke-width:1.0;" x1="480.5482" x2="472.549" y1="378.5364" y2="378.4199"/><text fill="#000000" font-family="sans-serif" font-size="13" lengthAdjust="spacing" textLength="42" x="513.5" y="364.8013">parent</text><!--MD5=[49eb15a584976a06f6d24d4f94cceb35]
link CodeList to CodeListValue--><path codeLine="74" d="M454.7779,422.9261 C462.8469,441.8171 471.7961,462.7688 480.2091,482.465 " fill="none" id="CodeList-to-CodeListValue" style="stroke:#A80036;stroke-width:1.0;"/><line style="stroke:#A80036;stroke-width:1.0;" x1="480.2617" x2="490.7611" y1="482.5884" y2="489.9454"/><line style="stroke:#A80036;stroke-width:1.0;" x1="480.2617" x2="476.0473" y1="482.5884" y2="489.9454"/><line style="stroke:#A80036;stroke-width:1.0;" x1="480.2617" x2="483.4042" y1="482.5884" y2="489.9454"/><!--MD5=[9fde796986122922cb2a146f47cd1a76]
link Status to CodeListValue--><path codeLine="75" d="M493.1347,189.3384 C523.6656,233.6263 561.0741,288.2314 562,291.2344 C580.0703,349.8453 572.9942,368.8945 562,429.2344 C558.7944,446.828 553.3353,465.1353 547.197,482.2671 " fill="none" id="Status-to-CodeListValue" style="stroke:#A80036;stroke-width:1.0;"/><line style="stroke:#A80036;stroke-width:1.0;" x1="547.0964" x2="551.8428" y1="482.5408" y2="490.049"/><line style="stroke:#A80036;stroke-width:1.0;" x1="547.0964" x2="536.8264" y1="482.5408" y2="490.049"/><line style="stroke:#A80036;stroke-width:1.0;" x1="547.0964" x2="544.3346" y1="482.5408" y2="490.049"/><!--MD5=[7f184389fc65552cdb46c25a04d65369]
link MEASURE_TYPE_CHOICES to UnitOfMeasure--><path codeLine="98" d="M100,214.5457 C100,239.6409 100,266.993 100,291.15 " fill="none" id="MEASURE_TYPE_CHOICES-UnitOfMeasure" style="stroke:#A80036;stroke-width:1.0;"/><text fill="#000000" font-family="sans-serif" font-size="13" lengthAdjust="spacing" textLength="92" x="101" y="257.3013">measure_type</text><!--MD5=[141543da8ec64b8d410e64c9010a488d]
@startuml core

title
<b>Core</b>
end title

right header
 Last Mod:
2021-02-20
endheader


entity Status{
    - code
    - slug
    + label
    definition
    + link
    is_valid
}

entity Namespace{
    - code
    name
}

entity Theme {
    - code
    - slug
    + link
    version
    label
    definition
    description

}
Status -down-{ Theme

entity ApplicationSchema {
    - code
    - slug
    + link
    version
    + label
    definition
    description
}
Theme }-left-{ ApplicationSchema
Status -left-{ ApplicationSchema

entity CodeList {
    - code
    - slug
    + link
    label
    definition
    description

}
CodeList }-left-{ Theme
CodeList }-left- ApplicationSchema
Status -down-{ CodeList
CodeList .down.{ CodeList : parent

entity CodeListValue{
    - code
    - slug
    + link
    + label
    definition
    description
    - -
    search(slug, code_list_slug)
}
CodeList -down-{ CodeListValue
Status -down-{ CodeListValue

enum MEASURE_TYPE_CHOICES {
    MEASURE_TYPE_UNKNOWN
    MEASURE_TYPE_AREA
    MEASURE_TYPE_LENGTH
    MEASURE_TYPE_ANGLE
    MEASURE_TYPE_TIME
    MEASURE_TYPE_VELOCITY
    MEASURE_TYPE_VOLUME
    MEASURE_TYPE_SCALE
    MEASURE_TYPE_WEIGHT
}

entity UnitOfMeasure {
    name
    - slug
    - symbol
    name_standard_unit
    scale_to_standard_unit
    offset_to_standard_unit
    formula
}
UnitOfMeasure -up- MEASURE_TYPE_CHOICES: measure_type
@enduml

PlantUML version 1.2021.00(Sun Jan 10 11:25:05 CET 2021)
(GPL source distribution)
Java Runtime: OpenJDK Runtime Environment
JVM: OpenJDK 64-Bit Server VM
Default Encoding: UTF-8
Language: es
Country: ES
--></g></svg>