<?xml version="1.0" encoding="UTF-8" standalone="no"?><svg xmlns="http://www.w3.org/2000/svg" xmlns:xlink="http://www.w3.org/1999/xlink" contentScriptType="application/ecmascript" contentStyleType="text/css" height="120px" preserveAspectRatio="none" style="width:270px;height:120px;" version="1.1" viewBox="0 0 270 120" width="270px" zoomAndPan="magnify"><defs><filter height="300%" id="fr6g085lskxep" width="300%" x="-1" y="-1"><feGaussianBlur result="blurOut" stdDeviation="2.0"/><feColorMatrix in="blurOut" result="blurOut2" type="matrix" values="0 0 0 0 0 0 0 0 0 0 0 0 0 0 0 0 0 0 .4 0"/><feOffset dx="4.0" dy="4.0" in="blurOut2" result="blurOut3"/><feBlend in="SourceGraphic" in2="blurOut3" mode="normal"/></filter></defs><g><!--MD5=[77354ef97ed3c0d47f31e2cb6e088881]
class SimbologyHelp--><rect codeLine="2" fill="#FEFECE" filter="url(#fr6g085lskxep)" height="99.2188" id="SimbologyHelp" style="stroke:#A80036;stroke-width:1.5;" width="249" x="7" y="7"/><ellipse cx="81.75" cy="23" fill="#ADD1B2" rx="11" ry="11" style="stroke:#A80036;stroke-width:1.0;"/><path d="M85.8594,29 L78.1406,29 L78.1406,16.6094 L85.8594,16.6094 L85.8594,18.7656 L80.5938,18.7656 L80.5938,21.4375 L85.3594,21.4375 L85.3594,23.5938 L80.5938,23.5938 L80.5938,26.8438 L85.8594,26.8438 L85.8594,29 Z " fill="#000000"/><text fill="#000000" font-family="sans-serif" font-size="12" lengthAdjust="spacing" textLength="91" x="102.25" y="27.1543">SimbologyHelp</text><line style="stroke:#A80036;stroke-width:1.5;" x1="8" x2="255" y1="39" y2="39"/><rect fill="none" height="6" style="stroke:#C82930;stroke-width:1.0;" width="6" x="15" y="47"/><text fill="#000000" font-family="sans-serif" font-size="11" lengthAdjust="spacing" textLength="71" x="27" y="53.2104">Not null field</text><ellipse cx="18" cy="62.8047" fill="none" rx="3" ry="3" style="stroke:#038048;stroke-width:1.0;"/><text fill="#000000" font-family="sans-serif" font-size="11" lengthAdjust="spacing" textLength="87" x="27" y="66.0151">Mandatory field</text><text fill="#000000" font-family="sans-serif" font-size="11" lengthAdjust="spacing" textLength="69" x="27" y="78.8198">Normal field</text><line style="stroke:#A80036;stroke-width:1.5;" x1="8" x2="255" y1="85.4141" y2="85.4141"/><polygon fill="#FFFF44" points="18,91.4141,22,95.4141,18,99.4141,14,95.4141" style="stroke:#B38D22;stroke-width:1.0;"/><text fill="#000000" font-family="sans-serif" font-size="11" lengthAdjust="spacing" textLength="223" x="27" y="99.6245">field (Foreign Key with limit_choices_to)</text><!--MD5=[cf811115009fe4aefd3124db55368492]
@startuml simbology_help

entity SimbologyHelp {
    - Not null field
    + Mandatory field
    Normal field
    # field (Foreign Key with limit_choices_to)
}

@enduml

PlantUML version 1.2021.00(Sun Jan 10 11:25:05 CET 2021)
(GPL source distribution)
Java Runtime: OpenJDK Runtime Environment
JVM: OpenJDK 64-Bit Server VM
Default Encoding: UTF-8
Language: es
Country: ES
--></g></svg>